<svg xmlns="http://www.w3.org/2000/svg"  viewBox="0 0 48 48" width="48px" height="48px" baseProfile="basic"><path fill="#52cccc" d="M42.25,19.75h-4.648c-0.257-0.82-0.593-1.605-0.987-2.355L39.91,14.1	c0-0.552,0-0.862,0-1.414L35.314,8.09c-0.552,0-0.862,0-1.414,0l-3.295,3.295c-0.75-0.394-1.534-0.73-2.355-0.987V5.75	c-0.391-0.391-0.609-0.609-1-1h-6.5c-0.391,0.391-0.609,0.609-1,1v4.648c-0.82,0.257-1.605,0.593-2.355,0.987L14.101,8.09	c-0.552,0-0.862,0-1.414,0L8.09,12.686c0,0.552,0,0.862,0,1.414l3.295,3.295c-0.394,0.75-0.73,1.534-0.987,2.355H5.75	c-0.391,0.391-0.609,0.609-1,1v6.5c0.391,0.391,0.609,0.609,1,1h4.648c0.257,0.82,0.593,1.605,0.987,2.355L8.09,33.899	c0,0.552,0,0.862,0,1.414l4.596,4.596c0.552,0,0.862,0,1.414,0l3.295-3.295c0.75,0.394,1.534,0.73,2.355,0.987v4.648	c0.391,0.391,0.609,0.609,1,1h6.5c0.391-0.391,0.609-0.609,1-1v-4.648c0.82-0.257,1.605-0.593,2.355-0.987l3.295,3.295	c0.552,0,0.862,0,1.414,0l4.596-4.596c0-0.552,0-0.862,0-1.414l-3.295-3.295c0.394-0.75,0.73-1.534,0.987-2.355h4.648	c0.391-0.391,0.609-0.609,1-1v-6.5C42.859,20.359,42.641,20.141,42.25,19.75z" opacity=".15"/><circle cx="24" cy="24" r="6.064" fill="#52cccc" opacity=".8"/><path fill="#52cccc" d="M23.122,32.954l-0.496-0.062l0.248-1.984l0.496,0.062L23.122,32.954z M22.287,30.788	l-0.48-0.139l-0.556,1.921l0.48,0.139L22.287,30.788z M21.25,30.434l-0.452-0.213l-0.854,1.809l0.452,0.213L21.25,30.434z M20.273,29.93l-0.414-0.281l-1.125,1.653l0.414,0.281L20.273,29.93z M19.396,29.269l-0.364-0.343l-1.37,1.458l0.364,0.343	L19.396,29.269z M18.628,28.482l-0.307-0.395l-1.579,1.227l0.307,0.395L18.628,28.482z M17.986,27.59l-0.241-0.438l-1.752,0.965	l0.241,0.438L17.986,27.59z M17.506,26.604l-0.17-0.47l-1.882,0.678l0.17,0.47L17.506,26.604z M17.174,25.558l-0.093-0.491	l-1.965,0.372l0.093,0.491L17.174,25.558z M17.021,24.47l-0.016-0.5l-2,0.063l0.016,0.5L17.021,24.47z M17.093,22.875l-1.984-0.249	l-0.063,0.496l1.984,0.249L17.093,22.875z M17.352,21.808l-1.921-0.557l-0.139,0.48l1.921,0.557L17.352,21.808z M17.779,20.797	l-1.809-0.852l-0.214,0.452l1.809,0.852L17.779,20.797z M18.352,19.86l-1.654-1.125l-0.281,0.413l1.654,1.125L18.352,19.86z M19.074,19.031l-1.457-1.369l-0.343,0.365l1.457,1.369L19.074,19.031z M19.912,18.321l-1.227-1.579l-0.395,0.307l1.227,1.579	L19.912,18.321z M20.849,17.745l-0.966-1.752l-0.438,0.242l0.966,1.752L20.849,17.745z M21.867,17.336l-0.679-1.881l-0.471,0.169	l0.679,1.881L21.867,17.336z M22.934,17.081l-0.373-1.965l-0.491,0.094l0.373,1.965L22.934,17.081z M24.03,17.004l-0.063-1.999	l-0.5,0.016l0.063,1.999L24.03,17.004z M25.374,15.108l-0.496-0.062l-0.248,1.984l0.496,0.062L25.374,15.108z M26.749,15.431	l-0.48-0.139l-0.556,1.921l0.48,0.139L26.749,15.431z M28.056,15.97l-0.452-0.213l-0.854,1.809l0.452,0.213L28.056,15.97z M29.266,16.698l-0.414-0.281l-1.125,1.653l0.414,0.281L29.266,16.698z M30.338,17.617l-0.364-0.343l-1.37,1.458l0.364,0.343	L30.338,17.617z M31.258,18.685l-0.307-0.395l-1.579,1.227l0.307,0.395L31.258,18.685z M32.007,19.883l-0.241-0.438l-1.752,0.965	l0.241,0.438L32.007,19.883z M32.546,21.189l-0.17-0.47l-1.882,0.678l0.17,0.47L32.546,21.189z M32.884,22.561l-0.093-0.491	l-1.965,0.372l0.093,0.491L32.884,22.561z M32.995,23.968l-0.016-0.5l-2,0.063l0.016,0.5L32.995,23.968z M32.954,24.878	l-1.984-0.249l-0.063,0.496l1.984,0.249L32.954,24.878z M32.708,26.27l-1.921-0.557l-0.139,0.48l1.921,0.557L32.708,26.27z M32.243,27.603l-1.809-0.852l-0.214,0.452l1.809,0.852L32.243,27.603z M31.584,28.853l-1.654-1.125l-0.281,0.413l1.654,1.125	L31.584,28.853z M30.726,29.973l-1.457-1.369l-0.343,0.365l1.457,1.369L30.726,29.973z M29.709,30.952l-1.227-1.579l-0.395,0.307	l1.227,1.579L29.709,30.952z M28.556,31.765l-0.966-1.752l-0.438,0.242l0.966,1.752L28.556,31.765z M27.282,32.376l-0.679-1.881	l-0.471,0.169l0.679,1.881L27.282,32.376z M25.931,32.791l-0.373-1.965l-0.491,0.094l0.373,1.965L25.931,32.791z M24.532,32.979	L24.47,30.98l-0.5,0.016l0.063,1.999L24.532,32.979z" opacity=".8"/><path fill="#52cccc" d="M42.354,19.5H40.75l-1-1h-1.262c-0.109-0.285-0.229-0.57-0.357-0.853l1.332-1.332h0v-1.414	l0.698-0.698v-1.621L35.417,7.84h-1.621l-1.323,1.323l-1.426,0.012l-0.694,0.694C30.07,9.741,29.785,9.621,29.5,9.512V7.5l-1-1	V5.646L27.354,4.5h-6.707L19.5,5.646V7.25l-1,1v1.262c-0.285,0.109-0.57,0.229-0.853,0.357l-1.332-1.332v0h-1.414L14.204,7.84	h-1.621L7.84,12.583v1.621l1.326,1.326l0.01,1.424l0.694,0.694C9.741,17.93,9.621,18.215,9.512,18.5H7.5l-1,1H5.646L4.5,20.646	v6.707L5.646,28.5H7.25l1,1h1.262c0.109,0.285,0.229,0.57,0.357,0.853l-1.332,1.332h0v1.414L7.84,33.796v1.621l4.743,4.743h1.621	l1.323-1.323l1.426-0.012l0.694-0.694c0.282,0.128,0.567,0.248,0.853,0.357V40.5l1,1v0.854l1.146,1.146h6.707l1.146-1.146V40.75l1-1	v-1.262c0.285-0.109,0.57-0.229,0.853-0.357l1.332,1.332v0h1.414l0.698,0.698h1.621l4.743-4.743v-1.621l-1.323-1.323l-0.012-1.427	l-0.694-0.694c0.128-0.282,0.248-0.567,0.357-0.853H40.5l1-1h0.854l1.146-1.146v-6.707L42.354,19.5z M43,27.146L42.146,28h-4.729	l-0.055,0.175c-0.242,0.773-0.568,1.552-0.97,2.313l-0.085,0.163l3.352,3.352v1.207l-4.45,4.45h-1.207l-3.352-3.352l-0.163,0.086	c-0.765,0.402-1.543,0.729-2.313,0.969L28,37.418v4.728L27.146,43h-6.293L20,42.146v-4.728l-0.176-0.055	c-0.77-0.241-1.548-0.567-2.313-0.969l-0.163-0.086l-3.352,3.352H12.79l-4.45-4.45v-1.207l3.352-3.352l-0.085-0.163	c-0.401-0.762-0.728-1.54-0.97-2.313L10.582,28H5.854L5,27.146v-6.293L5.854,20h4.729l0.055-0.175	c0.242-0.773,0.568-1.552,0.97-2.313l0.085-0.163L8.34,13.997V12.79l4.45-4.45h1.207l3.352,3.352l0.163-0.086	c0.765-0.402,1.543-0.729,2.313-0.969L20,10.582V5.854L20.854,5h6.293L28,5.854v4.728l0.176,0.055	c0.77,0.241,1.548,0.567,2.313,0.969l0.163,0.086l3.352-3.352h1.207l4.45,4.45v1.207l-3.352,3.352l0.085,0.163	c0.401,0.762,0.728,1.54,0.97,2.313L37.418,20h4.729L43,20.854V27.146z M24,13.875c-5.583,0-10.125,4.542-10.125,10.125	S18.417,34.125,24,34.125S34.125,29.583,34.125,24S29.583,13.875,24,13.875z M24,33.875c-5.445,0-9.875-4.43-9.875-9.875	s4.43-9.875,9.875-9.875s9.875,4.43,9.875,9.875S29.445,33.875,24,33.875z"/></svg>