<?xml version="1.0" encoding="UTF-8" standalone="no"?>
<svg xmlns="http://www.w3.org/2000/svg" xmlns:xlink="http://www.w3.org/1999/xlink" width="300" height="300" enable-background="new" version="1.0">
  <defs>
    <linearGradient id="m" x1="31.5" x2="102.88" y1="198.5" y2="179.62" gradientUnits="userSpaceOnUse">
      <stop offset="0" stop-color="#dfe2dc"/>
      <stop offset="1" stop-color="#e8eae5"/>
    </linearGradient>
    <linearGradient id="n" x1="105.5" x2="156.5" y1="189" y2="195.5" gradientUnits="userSpaceOnUse">
      <stop offset="0" stop-color="#c6cbc1"/>
      <stop offset="1" stop-color="#b1b9ab"/>
    </linearGradient>
    <linearGradient id="o" x1="156.88" x2="216.63" y1="225.44" y2="190.94" gradientUnits="userSpaceOnUse">
      <stop offset="0" stop-color="#d3d7cf"/>
      <stop offset=".93942" stop-color="#d4d9d1"/>
      <stop offset=".97526" stop-color="#e2e6e0"/>
      <stop offset="1" stop-color="#d4d8d0"/>
    </linearGradient>
    <linearGradient id="p" x1="155.38" x2="214.88" y1="213.56" y2="190.94" gradientUnits="userSpaceOnUse">
      <stop offset="0" stop-color="#d3d7cf"/>
      <stop offset=".93942" stop-color="#d4d9d1"/>
      <stop offset=".96626" stop-color="#dfe3dc"/>
      <stop offset="1" stop-color="#d4d8d0"/>
    </linearGradient>
    <linearGradient id="t" x1="36" x2="38.875" y1="245.19" y2="246.56" gradientUnits="userSpaceOnUse">
      <stop offset="0" stop-color="#bcc4b6"/>
      <stop offset="1" stop-color="#bcc4b6" stop-opacity="0"/>
    </linearGradient>
    <linearGradient id="u" x1="31.93" x2="157.12" y1="236.03" y2="236.03" gradientUnits="userSpaceOnUse">
      <stop offset="0" stop-color="#d4d4cf"/>
      <stop offset="1" stop-color="#dededa"/>
    </linearGradient>
    <linearGradient id="x" x1="182.88" x2="196.66" y1="143.88" y2="143.88" gradientUnits="userSpaceOnUse">
      <stop offset="0" stop-color="#bdc6b9"/>
      <stop offset="1" stop-color="#d5dbd3"/>
    </linearGradient>
    <linearGradient id="B" x1="141.5" x2="139" y1="252.38" y2="178.38" gradientUnits="userSpaceOnUse">
      <stop offset="0" stop-color="#826a00"/>
      <stop offset="1" stop-color="#d9b100"/>
    </linearGradient>
    <linearGradient id="E" x1="189.12" x2="204.62" y1="189.06" y2="189.06" gradientUnits="userSpaceOnUse">
      <stop offset="0" stop-color="#a38500"/>
      <stop offset="1" stop-color="#a38500" stop-opacity="0"/>
    </linearGradient>
    <linearGradient id="G" x1="130.81" x2="182.08" y1="175.55" y2="175.55" gradientTransform="translate(0 15)" gradientUnits="userSpaceOnUse">
      <stop offset="0" stop-color="#888a85"/>
      <stop offset="1" stop-color="#a4a5a1"/>
    </linearGradient>
    <linearGradient id="A" x1="49.75" x2="98.594" y1="218.75" y2="217" gradientUnits="userSpaceOnUse">
      <stop offset="0" stop-color="#ded9c4"/>
      <stop offset=".17803" stop-color="#f8d022"/>
      <stop offset="1" stop-color="#ebe3c1"/>
    </linearGradient>
    <linearGradient id="z" x1="180" x2="177.09" y1="211.5" y2="148" gradientUnits="userSpaceOnUse">
      <stop offset="0" stop-color="#d7c574"/>
      <stop offset=".3861" stop-color="#cfbb62"/>
      <stop offset=".83725" stop-color="#c6af4e"/>
      <stop offset="1" stop-color="#dfd39d"/>
    </linearGradient>
    <linearGradient id="H" x1="130.81" x2="182.08" y1="175.55" y2="175.55" gradientUnits="userSpaceOnUse">
      <stop offset="0" stop-color="#888a85"/>
      <stop offset="1" stop-color="#a4a5a1"/>
    </linearGradient>
    <linearGradient id="I" x1="153.71" x2="195.16" y1="234.46" y2="224.83" gradientUnits="userSpaceOnUse">
      <stop offset="0" stop-color="#a2a2a2"/>
      <stop offset="1" stop-color="#b6b6b6"/>
    </linearGradient>
    <linearGradient id="y" x1="72.25" x2="95.75" y1="163.38" y2="178.5" gradientUnits="userSpaceOnUse">
      <stop offset="0" stop-color="#e0e2de"/>
      <stop offset="1" stop-color="#e1e3df" stop-opacity="0"/>
    </linearGradient>
    <linearGradient id="j" x1="77.25" x2="101.25" y1="224.38" y2="229.12" gradientTransform="translate(0 -.00000419)" gradientUnits="userSpaceOnUse">
      <stop offset="0" stop-color="#5e4e07"/>
      <stop offset=".81005" stop-color="#977d0a"/>
      <stop offset="1" stop-color="#5a4a06"/>
    </linearGradient>
    <linearGradient id="C" x1="113.81" x2="175.08" y1="157.3" y2="155.55" gradientTransform="translate(0 15)" gradientUnits="userSpaceOnUse">
      <stop offset="0" stop-color="#888a85"/>
      <stop offset="1" stop-color="#a4a5a1"/>
    </linearGradient>
    <linearGradient id="D" x1="98.5" x2="112.75" y1="173.5" y2="169.25" gradientUnits="userSpaceOnUse">
      <stop offset="0" stop-color="#bdbdbd"/>
      <stop offset="1" stop-color="#cdcdcd"/>
    </linearGradient>
    <linearGradient id="F" x1="153.19" x2="182.08" y1="179.55" y2="175.55" gradientTransform="translate(0 15)" gradientUnits="userSpaceOnUse">
      <stop offset="0" stop-color="#b9bab7"/>
      <stop offset="1" stop-color="#c7c7c5"/>
    </linearGradient>
    <linearGradient id="a">
      <stop offset="0"/>
      <stop offset="1" stop-opacity="0"/>
    </linearGradient>
    <linearGradient id="S" x1="129.2" x2="125.53" y1="164.82" y2="37.82" gradientUnits="userSpaceOnUse">
      <stop offset="0"/>
      <stop offset="1" stop-opacity=".50877"/>
    </linearGradient>
    <linearGradient id="J" x1="118" x2="103.25" y1="159.38" y2="169.88" gradientUnits="userSpaceOnUse">
      <stop offset="0"/>
      <stop offset="1" stop-opacity=".37281"/>
    </linearGradient>
    <linearGradient id="aa" x1="147.71" x2="148.52" y1="-104.29" y2="-101.67" gradientUnits="userSpaceOnUse">
      <stop offset="0" stop-color="#fff"/>
      <stop offset="1" stop-color="#d2d2d2"/>
    </linearGradient>
    <radialGradient id="q" cx="77.288" cy="197.92" r="30.75" gradientTransform="matrix(1.1301 -.29268 .18142 .70047 -44.498 83.733)" gradientUnits="userSpaceOnUse">
      <stop offset="0" stop-color="#fff"/>
      <stop offset="1" stop-color="#fff" stop-opacity="0"/>
    </radialGradient>
    <radialGradient id="r" cx="209.63" cy="247.24" r="35.5" gradientTransform="matrix(1.0253 -.31924 .20099 .64548 -39.617 121.84)" gradientUnits="userSpaceOnUse">
      <stop offset="0" stop-color="#fff"/>
      <stop offset="1" stop-color="#fff" stop-opacity="0"/>
    </radialGradient>
    <radialGradient id="i" cx="61.91" cy="252.84" r="34.75" gradientTransform="matrix(2.806 -1.4274 .20469 .4024 -184.23 235.37)" gradientUnits="userSpaceOnUse">
      <stop offset="0" stop-color="#1f221d"/>
      <stop offset="1" stop-color="#84917c"/>
    </radialGradient>
    <radialGradient id="h" cx="86.161" cy="251.22" r="34.75" gradientTransform="matrix(1.7482 -.08633 .03548 .71855 -73.791 73.675)" gradientUnits="userSpaceOnUse">
      <stop offset="0" stop-color="#0e100d"/>
      <stop offset="1" stop-color="#687361"/>
    </radialGradient>
    <radialGradient id="f" cx="157.64" cy="224.32" r="34.75" gradientTransform="matrix(2.554 -.28777 .08055 .7149 -210.92 106.25)" gradientUnits="userSpaceOnUse">
      <stop offset="0" stop-color="#383e34"/>
      <stop offset="1" stop-color="#84917c"/>
    </radialGradient>
    <radialGradient id="w" cx="147.62" cy="217.75" r="21.625" gradientTransform="matrix(1 0 0 .52023 0 107.47)" gradientUnits="userSpaceOnUse">
      <stop offset="0" stop-color="#97a18f"/>
      <stop offset="1" stop-color="#b1b9ab" stop-opacity="0"/>
    </radialGradient>
    <radialGradient xlink:href="#a" id="K" cx="149.38" cy="194.62" r="13.625" gradientTransform="matrix(1 0 0 .57798 0 82.135)" gradientUnits="userSpaceOnUse"/>
    <radialGradient id="M" cx="125.57" cy="122.21" r="31.25" gradientTransform="matrix(1.456 0 0 2.3081 -38.688 -340.39)" gradientUnits="userSpaceOnUse">
      <stop offset="0" stop-color="#f57676"/>
      <stop offset="1" stop-color="#ed1212"/>
    </radialGradient>
    <radialGradient id="N" cx="129.25" cy="129.84" r="34.937" gradientUnits="userSpaceOnUse">
      <stop offset="0" stop-color="#fabebe"/>
      <stop offset="1" stop-color="#fabebe" stop-opacity="0"/>
    </radialGradient>
    <radialGradient id="P" cx="127.89" cy="116" r="31.25" gradientTransform="matrix(1.3494 0 0 2.1018 -44.686 -127.81)" gradientUnits="userSpaceOnUse">
      <stop offset="0" stop-color="#ff4141"/>
      <stop offset=".85862" stop-color="#d30909"/>
      <stop offset="1" stop-color="#c00"/>
    </radialGradient>
    <radialGradient id="Q" cx="149.49" cy="49.24" r="34.5" gradientTransform="matrix(1.0999 0 0 .47383 -14.938 -164.97)" gradientUnits="userSpaceOnUse">
      <stop offset="0" stop-color="#fff"/>
      <stop offset="1" stop-color="#fff" stop-opacity="0"/>
    </radialGradient>
    <radialGradient id="V" cx="168" cy="160.25" r="16.75" gradientTransform="matrix(1.6269 -.08955 .10008 1.8181 -121.35 -316.06)" gradientUnits="userSpaceOnUse">
      <stop offset="0" stop-color="#fabebe"/>
      <stop offset="1" stop-color="#fabebe" stop-opacity="0"/>
    </radialGradient>
    <radialGradient id="W" cx="149.46" cy="199.95" r="9.6343" gradientTransform="matrix(.83468 .02061 -.01532 .88991 27.801 -185.49)" gradientUnits="userSpaceOnUse">
      <stop offset="0" stop-color="#cccfca"/>
      <stop offset="1" stop-color="#aeb5a8" stop-opacity="0"/>
    </radialGradient>
    <radialGradient id="X" cx="153.47" cy="-93.837" r="47.356" gradientTransform="matrix(2.8373 -1.6877 .70239 1.1809 -222.03 265.86)" gradientUnits="userSpaceOnUse">
      <stop offset="0" stop-color="#fff"/>
      <stop offset="1" stop-color="#fff" stop-opacity="0"/>
    </radialGradient>
    <radialGradient id="v" cx="59.106" cy="262.1" r="30.394" gradientTransform="matrix(.9013 -.20563 .0448 .19636 -5.908 213.87)" gradientUnits="userSpaceOnUse">
      <stop offset="0" stop-color="#b5b5ac"/>
      <stop offset="1" stop-color="#78786c"/>
    </radialGradient>
    <filter id="g" width="1.2128" height="1.2353" x="-.10638" y="-.11767" color-interpolation-filters="sRGB">
      <feGaussianBlur stdDeviation="2.7702429"/>
    </filter>
    <filter id="e" width="1.8788" height="1.9721" x="-.43938" y="-.48604" color-interpolation-filters="sRGB">
      <feGaussianBlur stdDeviation="11.442308"/>
    </filter>
    <filter id="d" width="1.3295" height="1.5037" x="-.16474" y="-.25185" color-interpolation-filters="sRGB">
      <feGaussianBlur stdDeviation="4.5647773"/>
    </filter>
    <filter id="k" width="1.3718" height="1.1406" x="-.18591" y="-.070302" color-interpolation-filters="sRGB">
      <feGaussianBlur stdDeviation=".87145749"/>
    </filter>
    <filter id="c" color-interpolation-filters="sRGB">
      <feGaussianBlur stdDeviation="1.26417"/>
    </filter>
    <filter id="L" width="1.4446" height="1.7693" x="-.22232" y="-.38465" color-interpolation-filters="sRGB">
      <feGaussianBlur stdDeviation="2.5242915"/>
    </filter>
    <filter id="O" color-interpolation-filters="sRGB">
      <feGaussianBlur stdDeviation="1.3917004"/>
    </filter>
    <filter id="R" width="1.1251" height="1.2905" x="-.06256" y="-.14523" color-interpolation-filters="sRGB">
      <feGaussianBlur stdDeviation="1.670246"/>
    </filter>
    <filter id="U" color-interpolation-filters="sRGB">
      <feGaussianBlur stdDeviation=".81769923"/>
    </filter>
    <filter id="Y" color-interpolation-filters="sRGB">
      <feGaussianBlur stdDeviation="1.1094066"/>
    </filter>
    <filter id="b" width="1.3905" height="1.756" x="-.19524" y="-.37802" color-interpolation-filters="sRGB">
      <feGaussianBlur stdDeviation="14.805667"/>
    </filter>
    <filter id="l" width="1.1662" height="1.2642" x="-.0831" y="-.13211" color-interpolation-filters="sRGB">
      <feGaussianBlur stdDeviation="2.1467611"/>
    </filter>
    <filter id="Z" width="1.6938" height="1.2004" x="-.34689" y="-.10018" color-interpolation-filters="sRGB">
      <feGaussianBlur stdDeviation="1.3279352"/>
    </filter>
    <filter id="s" color-interpolation-filters="sRGB">
      <feGaussianBlur stdDeviation=".94053644"/>
    </filter>
    <clipPath id="T" clipPathUnits="userSpaceOnUse">
      <path fill="none" stroke="#000" stroke-width="2" d="M160.5 96.75c0 25.157-24.559 68.338-31.25 67.823-6.69-.51-31.25-42.15-31.25-67.82 0-17.259 13.99-31.25 31.25-31.25 17.259 0 31.25 13.991 31.25 31.25z" color="#000" enable-background="accumulate"/>
    </clipPath>
  </defs>
  <path d="m163 258 72-5-48-89-99 4-35 90z" color="#000" enable-background="accumulate" filter="url(#b)" opacity=".1893"/>
  <g color="#000" transform="translate(-1.2062 -13.508) scale(1.0925)">
    <path d="M195.12 140.34c-.13905.011-.27644.0427-.40625.0937l-42 17.062-39.71-15.05c-.3187-.12044-.6813-.12044-1 0l-46 17.25c-.47358.17647-.83466.6247-.90625 1.125l-3.875 31.219-.4375.0625c-.75065.10908-1.3251.91031-1.1875 1.6562l.3125 1.7812-.84375.5c-.51015.29089-.80017.92366-.6875 1.5l.40625 2-28.406 54.312c1.5933 6.2465 10.801 2.9752 11.844 2.75l52.092-35.72 61.308 29.65c.37902.18096.83973.18096 1.2188 0l7.818-2.0562.99453 5.2437c24.153-6.3541 45.288-16.26 66.781-30.594 2.0759-1.7698 2.0772-5.6883 1.5-6.625l-17.594-26.844.46875-1.0938c.2691-.62928-.00091-1.4393-.59375-1.7812l-1.375-.84375.16-.32c.2981-.59469.10219-1.3923-.4375-1.7812l-2.1562-1.5-15.84-41.09c-.21625-.56785-.83191-.95598-1.4375-.90625z" enable-background="accumulate" filter="url(#c)" opacity=".35802"/>
    <g transform="translate(0 .00000419)">
      <path d="M162.75 221c0 1 1.25 33.5 1.25 33.5l65.25-24.5-9.75-19z" enable-background="accumulate" filter="url(#d)" opacity=".41564" transform="matrix(.98586 0 0 1.0382 2.1462 -10.146)"/>
      <path d="M40.5 259.5 92 253l16.724-15.484 48.377 17.821 48.289-6.0222-5.0051-66.531-4.2061-32.611-49.473 16.682-34.576-15.7-44.38 17.295 4.7154 25.63z" enable-background="accumulate" filter="url(#e)" opacity=".57613"/>
      <path fill="url(#f)" d="m164.75 225.75.75 27c21.77-7.0124 43.167-14.582 61-27.5 3.75-1.25 7.625-3.625 6.625-6.875S226 207.25 226 207.25z" enable-background="accumulate"/>
      <path d="m40.5 260 51.5-6.5 11-50-44.5 13z" enable-background="accumulate" filter="url(#g)"/>
      <path fill="url(#h)" d="m42 259.12 9.375-14 45-11-2.25 14.25s-1.3698 2.9545-4.375 3.75z" enable-background="accumulate"/>
      <path fill="url(#i)" d="M32.25 253.25s1.4612 4.4806 3.5862 4.1056l51.914-12.11c3.0936-.26517 5.5255.84983 5.75 3 .19055 1.8253-2.0403 2.8813-4.25 3.5l-48 7.5 2.5.5 46.75-7.25c2.74-.66291 4-2.5 4.25-4.25l8.75-38.5-40 3.75z" enable-background="accumulate"/>
      <path fill="url(#j)" d="m61.75 249.75 5.5-13.5c.25-2 5-5.25 9.5-5.75 0 0 9.6931-1.6834 19.75-3 2.1814-.28558 2 4.75 2 4.75l3.25-12.5-4.5-7.75-25.5 6c-6.4541 4.4579-12.454 4.3774-19.5 14.75l-6.75 20.5z" enable-background="accumulate"/>
      <path fill="#a8b0a4" d="m89 244.75 3.5 1.25 7.75-28-1.75-1.75z" enable-background="accumulate" filter="url(#k)" opacity=".4321"/>
      <path d="M39.5 247.5c1-2 52.5-22.5 52.5-22.5l7.5 5.5 2-11-10.5-11z" enable-background="accumulate" filter="url(#l)" opacity=".59671"/>
      <path fill="url(#m)" d="M112.5 142.5 66 161l-4.5 34.88-28.75 54.87C46.087 245.88 75.378 232.47 91 219l16.5-39.5z" enable-background="accumulate"/>
      <path fill="url(#n)" d="M112.5 142.5 147 159l5.5 35.5 3.2026 43.235.8 10.76c-19.51-12.65-41.79-19.76-62.986-29.03-1.75-.88-2.514-.47-2.514-.47l16.5-39.5z" enable-background="accumulate"/>
      <path fill="url(#o)" d="M197 144.25c-.625-1.875-2.3589-3.3502-3.7339-2.7252l-46.27 17.48 5.5 35.5-.11187 26.49 4.11 27.51c25.686-9.11 48.225-20.441 69.937-32.357 3-1.375 5.6884-.14317 5.6884-.14317l-19.62-31.5z" enable-background="accumulate"/>
      <path fill="url(#p)" d="M197 144.25c-.625-1.875-2.3589-3.3502-3.7339-2.7252l-46.27 17.48 5.5 35.5.5 4.75 59-15.875z" enable-background="accumulate"/>
      <path fill="url(#q)" d="M61.007 195.94 107.5 180l-17 38.5-55.771 32.801z" enable-background="accumulate" opacity=".40329"/>
      <path fill="url(#r)" d="m212 188-59 11.625 3.5 47.125c24.754-8.7784 48.353-19.172 70.75-31.25z" enable-background="accumulate" filter="url(#s)" opacity=".63786"/>
      <path fill="url(#t)" d="M60.919 194.56c-.08739.24242.08949 1.5938.08949 1.5938s-.0714.11028-.27662.36962c-.12982.16405-.69178.62694-.69178.62694l.4001.42789-28.815 56.54 4.125-2.12 26.5-56.5c.21796-1.8688-.23162-2.2792-1.3315-.93946z" enable-background="accumulate" opacity=".60082"/>
      <path fill="#eeeeec" d="M156.5 248.75c24.996-8.7017 47.543-20.298 70-32 4-1.625 5.625-.625 5.625-.625S229 214.25 226 215.5c-21.604 10.754-55.162 25.798-67.003 30.544-1.8978-1.1752-2.9194-1.0084-2.7468.95554z" enable-background="accumulate"/>
      <path fill="url(#u)" d="M156.88 248.75c-19.699-13.103-42.495-20.014-64.101-29.303-16.164 12.483-35.334 22.838-55.95 31.214-3.5 1.75-3.3937 5.4297-3.3937 5.4297s-5.9733-6.25 5.6517-8.125c3.103.92 56.759-30.73 53.91-31.09 21.033 9.3515 44.58 17.797 64.125 30.125z" enable-background="accumulate"/>
      <path fill="url(#v)" d="M32.711 255c1.2208 1.9134 4.1227 2.329 6.3685 1.905 15.3-2.89 46.9-11.03 51.42-10.9 1.7333.0504 3 2 3 2s.01464-2.592-2.625-3c-9.0623-2.037-54.257 12.96-58.164 9.9957z" enable-background="accumulate" transform="translate(0 -.00000419)"/>
      <path fill="#c6cbc1" d="M60.909 193.57c-.23808 1.1904.18229 2.3086.18229 2.3086l20.942-7.2052z" enable-background="accumulate"/>
      <path fill="#d6dad2" d="M59.812 197.32c-.28569.57138-.14554 1.901-.14554 1.901l25.168-10.337z" enable-background="accumulate"/>
      <path fill="#edefeb" d="M62.323 192.3c-.52377.14277-1.4346 1.21-1.4346 1.21l21.232-4.8602zm-1.095 3.43c-.52377.14277-1.4346 1.4957-1.4346 1.4957l24.469-8.1933z" enable-background="accumulate"/>
      <path fill="#c6cbc1" d="M211.26 181.13c.77064.93798.92645 2.1224.92645 2.1224l-33.623 8.9867z" enable-background="accumulate"/>
      <path fill="#d6dad2" d="M213.75 184.48c.89612 1.2445-.22631 1.9834-.22631 1.9834l-38.287 7.1841z" enable-background="accumulate"/>
      <path fill="#edefeb" d="M209.42 180.67c.52929-.12072 1.8354.39181 1.8354.39181l-31.802 11.015zm2.77 2.95c.52929-.12072 1.5325 1.0813 1.5325 1.0813l-37.823 8.8968z" enable-background="accumulate"/>
      <path fill="#d6dad2" d="M215.5 187.48c.89612 1.2445-.22631 1.9834-.22631 1.9834l-22.537 2.4341z" enable-background="accumulate"/>
      <path fill="#edefeb" d="M213.94 186.62c.52929-.12072 1.5325 1.0813 1.5325 1.0813l-23.198 3.7718z" enable-background="accumulate"/>
      <path fill="url(#w)" d="m152.5 220.75 2.25 14.5-43.25-22.5z" enable-background="accumulate" transform="translate(0 -.00000419)"/>
      <path fill="#a7b0a0" d="m107.77 179.55999581 29.584 9.5986-30.228-8.1728z" enable-background="accumulate"/>
      <path fill="#f0f2ef" d="m107.75 179.56-.96875.0312-6.5625 2.8438 6.375-2.2188.59375.7813z" enable-background="accumulate"/>
      <path fill="#9aa894" d="M228.75 223.99999581c-18.203 13.263-40.175 21.68-63 29l-.25-2.75c22.866-5.8973 43.714-15.025 63.25-26.25z" enable-background="accumulate"/>
      <path fill="url(#x)" d="m183.49 145.14 10.165-3.8891c1.8562-.44194 3.0052 1.9445 3.0052 1.9445s-1.6794-1.3258-3.182-.70711l-10.607 4.0659z" enable-background="accumulate"/>
      <path fill="#f7f8f6" d="m182.99 146.52 10.29-4.0141c1.8562-.44194 2.5052.31954 2.5052.31954s-1.1794.29917-2.682.91789l-10.732 4.1909z" enable-background="accumulate"/>
      <path fill="url(#y)" d="m112.38 142.5-4.875 37.125-29.5 10-16.125 2.625L66.13 161z" enable-background="accumulate"/>
      <path fill="#f7f8f6" d="m65.375 166.12.875-5.375 46.562-18.688 1.875.5-1.7188.21875-1.2188.34375-45.25 18.5z" enable-background="accumulate"/>
    </g>
    <path fill="url(#z)" d="M153.28 226.54s-.16843-1.6031.94374-2.022c1.3148-.49513 1.8519.84861 1.8519.84861l26.92-11.37c14.502-4.4622 20.985-14.455 21.092-25.249.006-.62384.55367-1.2504.51763-1.8786-.0262-.45655-.62595-.91403-.67417-1.3721-.066-.62718.40992-1.3805.30314-2.0089-.0614-.36154-.69206-.59815-.76682-.95964-.35-1.68-.84-3.37-1.47-5.03l-15-32.5-13.5 4.5 13.5 32.5c.71026 1.9887 1.138 4.1389 1.1228 6.3129-.001.20967-.46995.76045-.0169.62955 0 0-.0269.46241-.0482.69363-.47 5.04-3.49 10.07-11.06 13.36l-21.862 9.3568s-.31603-.94462-1.519-.74672c-1.3222.2175-1.1188 1.4479-1.1188 1.4479z" enable-background="accumulate"/>
    <path fill="url(#A)" d="m105 188-20.873 10.823 4.8743-12.798 2.139-34.411-12.154 5.7494-2.1302 33.341-4.803 14.379-21.053 10.92-7.5 15 56.5-32z" enable-background="accumulate"/>
    <path fill="url(#B)" d="m152.5 213 .76517 13.588c-7.8997-5.9421-15.727-12.156-24.095-15.758l-2.9711 20.595-11.152-4.8611 3.4128-21.309c-6.16-3.04-11.42-4.52-17.97-6.26l3.2929-9.2322c17.26 5.19 33.04 12.99 48.71 23.23z" enable-background="accumulate"/>
    <path fill="url(#C)" d="M127.09 195.03 128.5 184l1-30.5-16.75-8.5-4.75 34.5-2 6c7.1288 2.3407 13.735 5.1429 21.088 9.5277z" enable-background="accumulate"/>
    <path fill="url(#D)" d="m88.5 193.5 4.75-8.75 2-31.75 17.5-8-4.75 34.5-2 6z" enable-background="accumulate"/>
    <path fill="#f9faf9" d="m112 143.25-4.8397 33.819.28165 1.2085-1.6391.49091.81597 1.2093-16.245 39.4c.98539-.62285 1.7678-.52728 2.4219-.15625l14.953-39.72 5.25-35.88z" enable-background="accumulate"/>
    <path fill="#c5a100" d="m204.31 183.69-.25 1.6875-15.81 3.62z" enable-background="accumulate"/>
    <path fill="url(#E)" d="m204.62 187.25-.6875 1.25-14.812 2.375z" enable-background="accumulate"/>
    <path fill="url(#F)" d="m159.45 191.96-4.9498-13.789 22.627-7.4246 6.6227 15.624-6.9762 11.953-21.561 9.1941-.93306-13.655z" enable-background="accumulate"/>
    <path fill="url(#G)" d="M152.12 209.64c-7.3993-4.0239-13.484-10.841-21.302-13.612v-10.43l20.683 9.6343z" enable-background="accumulate"/>
    <path fill="#686965" d="m150.61 179.44 2.1213 13.081-22.627-10.253.35355-12.374z" enable-background="accumulate"/>
    <path fill="url(#H)" d="m143.54 224.69.7071 12.021 11.314 5.8336-1.8562-11.932z" enable-background="accumulate"/>
    <path fill="url(#I)" d="m166.88 224.34 2.8284 12.021 25.456-11.932-3.8007-11.137zm-5.04 2.03 2.2097 11.49-8.4853 4.6846-1.8562-11.932z" enable-background="accumulate"/>
    <path fill="url(#J)" d="m95.5 153 17-8 19 8.5-4.25 32.75-19.25-8.5-15 7z" enable-background="accumulate" opacity=".30453"/>
    <g fill-opacity=".61404">
      <path d="m108.36 177.85 15.91 7.2478-16.44-6.1872z" enable-background="accumulate" opacity=".21399"/>
      <path fill="#fff" d="m107.66 180.06 16.617 5.0381-16.44-6.1872z" enable-background="accumulate" opacity=".21399"/>
      <path d="m108.5 176.39 17.128 3.5057-17.408-2.3533z" enable-background="accumulate" opacity=".21399"/>
      <path fill="#fff" d="m108.3 178.7 17.323 1.1938-17.408-2.3533z" enable-background="accumulate" opacity=".21399"/>
    </g>
    <path fill-opacity=".25439" d="M155.25 212.5c.43181 11.24 2.1474 22.48 3.5797 33.72-.31531-.40189-.67506-.78589-1.6352-.92807-1.4109-11.27-2.8004-22.406-3.3146-33.676.59604-.077 1.1244.0265 1.37.88388z" enable-background="accumulate" opacity=".30453"/>
    <path fill="#fff" fill-opacity=".25439" d="M152.6 212.67c.43181 11.24 1.0868 21.243 3.403 34.604-.31531-.40189 2.1534-1.8466 1.1932-1.9887-1.4109-11.27-2.8004-22.406-3.3146-33.676.59604-.077-1.5273.20328-1.2816 1.0607z" enable-background="accumulate" opacity=".69959"/>
    <g transform="translate(0 200)">
      <path fill="url(#K)" d="M163 194.62a13.625 7.875 0 1 1-27.25 0 13.625 7.875 0 1 1 27.25 0z" enable-background="accumulate" filter="url(#L)" opacity=".34979" transform="translate(-104.33 -335.93) scale(1.6984)"/>
      <path fill="url(#K)" d="M163 194.62a13.625 7.875 0 1 1-27.25 0 13.625 7.875 0 1 1 27.25 0z" enable-background="accumulate" opacity=".34979" transform="translate(0 -200)"/>
      <path fill="url(#M)" d="M195-101.5c0 36.629-35.76 99.5-45.5 98.75S104-64.121 104-101.5c0-25.129 20.371-45.5 45.5-45.5s45.5 20.371 45.5 45.5z" enable-background="accumulate"/>
      <path fill="url(#N)" d="M160.5 96.75a31.25 31.25 0 1 1-62.5 0 31.25 31.25 0 1 1 62.5 0z" enable-background="accumulate" filter="url(#O)" opacity=".62551" transform="translate(6.808 -206.56) scale(1.104)"/>
      <path fill="url(#P)" d="M160.5 96.75a31.25 31.25 0 1 1-62.5 0 31.25 31.25 0 1 1 62.5 0z" enable-background="accumulate" transform="translate(6.808 -208.31) scale(1.104)"/>
      <path fill="url(#Q)" d="M149.49-146.85c-17.694 0-32.038 11.056-32.038 24.694 0 .98397.0869 1.954.23216 2.9079 1.8761-12.26 15.395-21.764 31.806-21.764s29.959 9.5038 31.835 21.764c.1452-.95391.20314-1.9239.20314-2.9079 0-13.638-14.344-24.694-32.038-24.694z" enable-background="accumulate" filter="url(#R)" opacity=".45267"/>
      <path fill="none" stroke="url(#S)" stroke-width="1.3736" d="M160.5 96.75c0 25.157-24.559 68.338-31.25 67.823-6.69-.51-31.25-42.15-31.25-67.82 0-17.259 13.99-31.25 31.25-31.25 17.259 0 31.25 13.991 31.25 31.25z" clip-path="url(#T)" enable-background="accumulate" filter="url(#U)" opacity=".34979" transform="translate(-38.688 -242.37) scale(1.456)"/>
      <path fill="url(#V)" d="M184.75-63.75C178.9667-47.293 170.445-30.289 158-12.5l-3.25 2.5c14.721-20.205 22.478-41.531 26-60.25z" enable-background="accumulate" opacity=".62551"/>
      <path fill="url(#W)" d="M149.57-4.3866c-3.6177 0-7.9696-8.8388-7.9696-8.8388l16.087-.88388s-4.1515 9.7227-8.1171 9.7227z" enable-background="accumulate" opacity=".37037"/>
      <path fill-opacity=".035088" d="M172-127.56c-14.117-12.796-35.935-11.726-48.732 2.3915-8.4646 9.3383-10.826 22.046-7.3931 33.283 1.1855-5.8952 3.893-11.554 8.2249-16.333 12.796-14.117 34.614-15.188 48.732-2.3915 4.779 4.3319 8.0276 9.698 9.7846 15.449 2.3164-11.519-1.2781-23.934-10.616-32.399z" enable-background="accumulate"/>
      <path fill="none" stroke="url(#X)" d="M149.5-143.03c-22.992 0-41.531 18.539-41.531 41.531 0 17.429 8.6685 41.723 18.656 61.312 4.9939 9.7945 10.304 18.468 14.844 24.594 2.2698 3.063 4.3572 5.4811 6 7.0312 1.1915 1.1243 1.9621 1.5185 2.1875 1.6875.31182-.16635 1.0186-.51685 1.9375-1.3438 1.592-1.4326 3.6758-3.7972 5.9375-6.8438 4.5234-6.0932 9.8486-14.877 14.844-24.812 9.9903-19.871 18.656-44.597 18.656-61.625 0-22.992-18.539-41.531-41.531-41.531z" enable-background="accumulate" filter="url(#Y)"/>
      <path d="M144.97-119.19v31.812h9.1875v-31.812H144.97z" enable-background="accumulate" filter="url(#Z)" transform="translate(0 1.4142)"/>
      <path fill="url(#aa)" d="M144.96-119.2h9.1924v31.82H144.96z" enable-background="accumulate"/>
    </g>
  </g>
</svg>